<?xml version="1.0" encoding="utf-8"?>
<svg version="1.1" xmlns="http://www.w3.org/2000/svg" xmlns:xlink="http://www.w3.org/1999/xlink" x="0px" y="0px" viewBox="0 0 512 512">
<style type="text/css">
	.st0{fill:none;stroke:#000000;stroke-width:13.9933;stroke-miterlimit:10;}
</style>
<g>
	<path class="st0" d="M168,175.2c3-1.6,6.7-2.8,9.9-2.8c10.1,0,17.2,12,17.2,22.5c0,5.7-3.2,10.6-10.3,14.3l-92.2,47.6
		c-2.3,1.1-3,1.8-3,3.2s0.7,2.1,3,3.2l92.2,47.6c4.8,2.5,10.3,6.4,10.3,14.5c0,10.1-7.1,22.5-17.5,22.5c-3.7,0-7.8-1.8-9.7-2.8
		L34.5,275.9c-7.4-3.7-12-8-12-15.6c0-7.8,3.9-12,12-16.1L168,175.2z"/>
	<path class="st0" d="M279.1,170.3c1.6-3.7,6.7-10.3,14.9-10.3c10.6,0,17,8,17,16.8c0,2.5-0.5,4.6-1.1,6.2l-69,166.7
		c-1.6,3.7-6.7,10.3-14.9,10.3c-10.6,0-17.2-8-17.2-16.6c0-2.5,0.7-4.8,1.4-6.4L279.1,170.3z"/>
	<path class="st0" d="M352,345.1c-3,1.6-6.7,2.8-9.9,2.8c-10.1,0-17.2-12.2-17.2-22.8c0-5.7,3-10.6,10.3-14.3l92.2-47.6
		c2.1-1.1,2.8-1.8,2.8-3.2s-0.5-2.1-2.8-3.2l-92.2-47.6c-4.8-2.5-10.3-6.4-10.3-14.5c0-10.1,7.1-22.3,17.2-22.3c3.9,0,8,1.8,9.9,2.8
		l133.6,69c7.4,3.9,12,8,12,15.9c0,7.6-3.9,11.7-12,15.9L352,345.1z"/>
</g>
</svg>
